<svg id="Capa_1" enable-background="new 0 0 510 510" height="512" viewBox="0 0 510 510" width="512" xmlns="http://www.w3.org/2000/svg" xmlns:xlink="http://www.w3.org/1999/xlink"><linearGradient id="lg1"><stop offset="0" stop-color="#2f73a0"/><stop offset="1" stop-color="#43765a"/></linearGradient><linearGradient id="SVGID_1_" gradientUnits="userSpaceOnUse" x1="169.641" x2="338.308" xlink:href="#lg1" y1="156.642" y2="325.309"/><linearGradient id="SVGID_2_" gradientUnits="userSpaceOnUse" x1="70.973" x2="239.639" xlink:href="#lg1" y1="255.311" y2="423.977"/><linearGradient id="SVGID_3_" gradientUnits="userSpaceOnUse" x1="317.644" x2="486.31" xlink:href="#lg1" y1="8.639" y2="177.306"/><linearGradient id="SVGID_4_" gradientUnits="userSpaceOnUse" x1="120.307" x2="288.973" xlink:href="#lg1" y1="205.976" y2="374.643"/><linearGradient id="SVGID_5_" gradientUnits="userSpaceOnUse" x1="218.975" x2="387.642" xlink:href="#lg1" y1="107.308" y2="275.974"/><linearGradient id="SVGID_6_" gradientUnits="userSpaceOnUse" x1="239.236" x2="407.902" xlink:href="#lg1" y1="87.047" y2="255.714"/><linearGradient id="SVGID_7_" gradientUnits="userSpaceOnUse" x1="279.412" x2="448.079" xlink:href="#lg1" y1="46.871" y2="215.537"/><linearGradient id="SVGID_8_" gradientUnits="userSpaceOnUse" x1="264.063" x2="432.73" xlink:href="#lg1" y1="62.22" y2="230.887"/><linearGradient id="SVGID_9_" gradientUnits="userSpaceOnUse" x1="306.197" x2="474.863" xlink:href="#lg1" y1="20.087" y2="188.753"/><linearGradient id="SVGID_10_" gradientUnits="userSpaceOnUse" x1="266.02" x2="434.687" xlink:href="#lg1" y1="60.263" y2="228.93"/><linearGradient id="SVGID_11_" gradientUnits="userSpaceOnUse" x1="112.358" x2="281.025" xlink:href="#lg1" y1="213.925" y2="382.592"/><linearGradient id="SVGID_12_" gradientUnits="userSpaceOnUse" x1="213.22" x2="381.887" xlink:href="#lg1" y1="113.063" y2="281.73"/><linearGradient id="SVGID_13_" gradientUnits="userSpaceOnUse" x1="-22.004" x2="146.663" xlink:href="#lg1" y1="348.287" y2="516.954"/><linearGradient id="SVGID_14_" gradientUnits="userSpaceOnUse" x1="27.331" x2="195.997" xlink:href="#lg1" y1="298.953" y2="467.619"/><linearGradient id="SVGID_15_" gradientUnits="userSpaceOnUse" x1="347.582" x2="516.249" xlink:href="#lg1" y1="-21.299" y2="147.368"/><linearGradient id="SVGID_16_" gradientUnits="userSpaceOnUse" x1="298.248" x2="466.915" xlink:href="#lg1" y1="28.035" y2="196.702"/><linearGradient id="SVGID_17_" gradientUnits="userSpaceOnUse" x1="87.047" x2="255.714" xlink:href="#lg1" y1="239.236" y2="407.902"/><linearGradient id="SVGID_18_" gradientUnits="userSpaceOnUse" x1="46.871" x2="215.537" xlink:href="#lg1" y1="279.412" y2="448.079"/><linearGradient id="SVGID_19_" gradientUnits="userSpaceOnUse" x1="20.087" x2="188.753" xlink:href="#lg1" y1="306.197" y2="474.863"/><linearGradient id="SVGID_20_" gradientUnits="userSpaceOnUse" x1="60.263" x2="228.93" xlink:href="#lg1" y1="266.02" y2="434.687"/><linearGradient id="SVGID_21_" gradientUnits="userSpaceOnUse" x1="62.22" x2="230.887" xlink:href="#lg1" y1="264.063" y2="432.73"/><linearGradient id="SVGID_22_" gradientUnits="userSpaceOnUse" x1="255.311" x2="423.977" xlink:href="#lg1" y1="70.973" y2="239.639"/><linearGradient id="SVGID_23_" gradientUnits="userSpaceOnUse" x1="107.308" x2="275.974" xlink:href="#lg1" y1="218.975" y2="387.642"/><linearGradient id="SVGID_24_" gradientUnits="userSpaceOnUse" x1="8.639" x2="177.306" xlink:href="#lg1" y1="317.644" y2="486.31"/><linearGradient id="SVGID_25_" gradientUnits="userSpaceOnUse" x1="205.976" x2="374.643" xlink:href="#lg1" y1="120.307" y2="288.973"/><linearGradient id="SVGID_26_" gradientUnits="userSpaceOnUse" x1="156.642" x2="325.309" xlink:href="#lg1" y1="169.641" y2="338.308"/><linearGradient id="SVGID_27_" gradientUnits="userSpaceOnUse" x1="295.61" x2="415.901" y1="296.987" y2="417.278"><stop offset="0" stop-color="#45a2e0"/><stop offset="1" stop-color="#2f73a0"/></linearGradient><linearGradient id="SVGID_28_" gradientUnits="userSpaceOnUse" x1="129.871" x2="269.897" y1="257.19" y2="397.215"><stop offset="0" stop-color="#7acbff"/><stop offset="1" stop-color="#45a2e0"/></linearGradient><linearGradient id="SVGID_29_" gradientUnits="userSpaceOnUse" x1="207.844" x2="359.045" y1="112.756" y2="263.956"><stop offset="0" stop-color="#c7e9ff"/><stop offset="1" stop-color="#7acbff"/></linearGradient><linearGradient id="lg2"><stop offset="0" stop-color="#174461" stop-opacity="0"/><stop offset="1" stop-color="#174461"/></linearGradient><linearGradient id="SVGID_30_" gradientUnits="userSpaceOnUse" x1="255" x2="255" xlink:href="#lg2" y1="359.751" y2="82.82"/><linearGradient id="SVGID_31_" gradientUnits="userSpaceOnUse" x1="307.088" x2="141.346" y1="180.432" y2="101.663"><stop offset="0" stop-color="#7acbff" stop-opacity="0"/><stop offset="1" stop-color="#2f73a0"/></linearGradient><linearGradient id="SVGID_32_" gradientUnits="userSpaceOnUse" x1="127.886" x2="203.886" xlink:href="#lg2" y1="374.541" y2="220.541"/><linearGradient id="SVGID_33_" gradientTransform="matrix(-1 0 0 1 -743.97 0)" gradientUnits="userSpaceOnUse" x1="-1125.656" x2="-1049.656" xlink:href="#lg2" y1="374.541" y2="220.541"/><linearGradient id="SVGID_34_" gradientTransform="matrix(-.497 -.868 -.868 .497 -3148.247 -1948.801)" gradientUnits="userSpaceOnUse" x1="-3559.593" x2="-3483.593" xlink:href="#lg2" y1="-1835.792" y2="-1989.792"/><g><g><path d="m132.69 146.649c1.219 0 2.455-.309 3.587-.958l25.091-14.377c3.465-1.985 4.664-6.402 2.679-9.867-1.985-3.464-6.403-4.664-9.867-2.679l-25.091 14.377c-3.465 1.985-4.664 6.402-2.679 9.867 1.337 2.331 3.773 3.637 6.28 3.637z" fill="url(#SVGID_1_)"/><path d="m28.727 190.653-25.09 14.377c-3.465 1.985-4.664 6.402-2.679 9.867 1.336 2.331 3.772 3.637 6.279 3.637 1.219 0 2.455-.309 3.587-.958l25.091-14.377c3.465-1.985 4.664-6.402 2.679-9.867s-6.403-4.665-9.867-2.679z" fill="url(#SVGID_2_)"/><path d="m320.869 38.823c1.219 0 2.455-.309 3.587-.958l25.091-14.376c3.465-1.985 4.664-6.402 2.679-9.867-1.985-3.464-6.403-4.665-9.867-2.679l-25.091 14.376c-3.465 1.985-4.664 6.402-2.679 9.867 1.337 2.331 3.774 3.637 6.28 3.637z" fill="url(#SVGID_3_)"/><path d="m101.32 157.389c-1.875-3.273-5.923-4.521-9.285-2.974l-18.484-10.591c-3.464-1.985-7.881-.786-9.867 2.678-1.985 3.465-.786 7.882 2.679 9.867l11.098 6.359-11.098 6.359c-3.465 1.985-4.664 6.402-2.679 9.867 1.336 2.331 3.772 3.637 6.279 3.637 1.219 0 2.454-.309 3.587-.958l18.495-10.597c.966.443 1.985.669 2.996.669 2.507 0 4.943-1.306 6.279-3.637.965-1.684 1.172-3.593.737-5.339.436-1.746.229-3.655-.737-5.34z" fill="url(#SVGID_4_)"/><path d="m189.137 107.07c1.336 2.331 3.772 3.637 6.279 3.637 1.219 0 2.455-.309 3.587-.958l25.091-14.376c3.465-1.985 4.664-6.402 2.679-9.867s-6.403-4.664-9.867-2.679l-25.091 14.376c-3.464 1.985-4.663 6.403-2.678 9.867z" fill="url(#SVGID_5_)"/><path d="m160.453 23.488 25.091 14.376c1.133.65 2.369.958 3.587.958 2.507 0 4.943-1.306 6.279-3.637 1.985-3.464.786-7.882-2.679-9.867l-25.091-14.376c-3.464-1.986-7.881-.786-9.867 2.679-1.984 3.464-.785 7.882 2.68 9.867z" fill="url(#SVGID_6_)"/><path d="m380.911 133.146-25.091-14.377c-3.464-1.985-7.881-.786-9.867 2.679-1.985 3.464-.786 7.882 2.679 9.867l25.091 14.377c1.133.65 2.369.958 3.587.958 2.507 0 4.943-1.306 6.279-3.637 1.985-3.465.786-7.883-2.678-9.867z" fill="url(#SVGID_7_)"/><path d="m223.179 59.43 25.091 14.377c1.133.649 2.369.958 3.587.958 1.091 0 2.163-.261 3.143-.733.98.472 2.052.733 3.143.733 1.219 0 2.454-.309 3.587-.958l25.091-14.377c3.465-1.985 4.664-6.402 2.679-9.867-1.985-3.464-6.403-4.663-9.867-2.678l-24.633 14.114-24.633-14.115c-3.464-1.985-7.881-.786-9.867 2.678-1.985 3.465-.785 7.883 2.679 9.868z" fill="url(#SVGID_8_)"/><path d="m474.085 203.198 25.091 14.377c1.133.649 2.369.958 3.587.958 2.507 0 4.943-1.306 6.279-3.637 1.985-3.464.786-7.882-2.679-9.867l-25.091-14.377c-3.463-1.985-7.882-.786-9.867 2.679-1.984 3.464-.785 7.882 2.68 9.867z" fill="url(#SVGID_9_)"/><path d="m283.227 85.505c-1.985 3.464-.786 7.882 2.679 9.867l25.091 14.376c1.133.649 2.369.958 3.587.958 2.507 0 4.943-1.306 6.279-3.637 1.985-3.464.786-7.882-2.679-9.867l-25.091-14.376c-3.463-1.985-7.881-.785-9.866 2.679z" fill="url(#SVGID_10_)"/><path d="m35.915 122.259-25.091-14.376c-3.464-1.986-7.881-.786-9.867 2.679-1.985 3.464-.786 7.882 2.679 9.867l25.091 14.376c1.133.649 2.369.958 3.587.958 2.507 0 4.943-1.306 6.279-3.637 1.986-3.465.787-7.882-2.678-9.867z" fill="url(#SVGID_11_)"/><path d="m506.363 390.983-25.091-14.377c-3.463-1.985-7.882-.786-9.867 2.679-1.985 3.464-.786 7.882 2.679 9.867l25.091 14.377c1.133.65 2.369.958 3.587.958 2.507 0 4.943-1.306 6.279-3.637 1.986-3.465.787-7.882-2.678-9.867z" fill="url(#SVGID_12_)"/><path d="m32.315 375.648c-1.219 0-2.455.309-3.587.958l-25.091 14.376c-3.465 1.985-4.664 6.402-2.679 9.867s6.403 4.665 9.867 2.679l25.091-14.376c3.465-1.985 4.664-6.402 2.679-9.867-1.337-2.332-3.773-3.637-6.28-3.637z" fill="url(#SVGID_13_)"/><path d="m101.32 343.342c-1.336-2.331-3.772-3.637-6.279-3.637-.476 0-.953.062-1.427.158l-20.063-11.496c-1.133-.65-2.369-.958-3.587-.958-2.507 0-4.943 1.306-6.279 3.637-1.985 3.464-.786 7.882 2.679 9.867l12.328 7.064-12.328 7.064c-3.465 1.985-4.664 6.402-2.679 9.867 1.985 3.464 6.403 4.663 9.867 2.678l20.051-11.489c2.973.607 6.128-.709 7.719-3.486.837-1.46 1.102-3.089.876-4.634.224-1.546-.041-3.175-.878-4.635z" fill="url(#SVGID_14_)"/><path d="m481.273 134.804 25.091-14.377c3.465-1.985 4.664-6.402 2.679-9.867-1.336-2.331-3.772-3.637-6.279-3.637-1.219 0-2.455.309-3.587.958l-25.091 14.377c-3.465 1.985-4.664 6.402-2.679 9.867 1.984 3.465 6.403 4.664 9.866 2.679z" fill="url(#SVGID_15_)"/><path d="m446.316 146.503c-1.336-2.331-3.772-3.637-6.279-3.637-1.219 0-2.454.309-3.587.958l-18.484 10.591c-3.362-1.547-7.41-.299-9.285 2.974-.965 1.684-1.172 3.593-.737 5.339-.435 1.746-.228 3.655.737 5.339 1.875 3.273 5.923 4.521 9.285 2.974l18.484 10.591c1.133.65 2.369.958 3.587.958 2.507 0 4.943-1.306 6.279-3.637 1.985-3.464.786-7.882-2.679-9.867l-11.098-6.359 11.098-6.359c3.465-1.983 4.664-6.401 2.679-9.865z" fill="url(#SVGID_16_)"/><path d="m349.547 486.512-25.091-14.376c-1.133-.65-2.369-.958-3.587-.958-2.507 0-4.943 1.306-6.279 3.637-1.985 3.464-.786 7.882 2.679 9.867l25.091 14.376c3.464 1.986 7.881.786 9.867-2.679 1.984-3.464.785-7.882-2.68-9.867z" fill="url(#SVGID_17_)"/><path d="m164.047 388.553c1.985-3.464.786-7.882-2.679-9.867l-25.091-14.377c-1.133-.65-2.369-.958-3.587-.958-2.507 0-4.943 1.306-6.279 3.637-1.985 3.464-.786 7.882 2.679 9.867l25.091 14.377c3.463 1.985 7.88.785 9.866-2.679z" fill="url(#SVGID_18_)"/><path d="m35.915 306.802-25.091-14.377c-1.133-.649-2.369-.958-3.587-.958-2.507 0-4.943 1.306-6.279 3.637-1.985 3.464-.786 7.882 2.679 9.867l25.091 14.377c3.463 1.985 7.882.786 9.867-2.679 1.984-3.464.785-7.882-2.68-9.867z" fill="url(#SVGID_19_)"/><path d="m226.773 424.495c1.985-3.464.786-7.882-2.679-9.867l-25.091-14.376c-1.133-.649-2.369-.958-3.587-.958-2.507 0-4.943 1.306-6.279 3.637-1.985 3.464-.786 7.882 2.679 9.867l25.091 14.376c3.463 1.985 7.881.785 9.866-2.679z" fill="url(#SVGID_20_)"/><path d="m286.821 450.57-25.091-14.377c-1.133-.649-2.369-.958-3.587-.958-1.091 0-2.163.261-3.143.733-.98-.472-2.052-.733-3.143-.733-1.219 0-2.454.309-3.587.958l-25.091 14.377c-3.465 1.985-4.664 6.402-2.679 9.867 1.985 3.464 6.403 4.663 9.867 2.678l24.633-14.114 24.633 14.115c3.464 1.985 7.881.786 9.867-2.678 1.985-3.465.785-7.883-2.679-9.868z" fill="url(#SVGID_21_)"/><path d="m481.273 319.347 25.091-14.377c3.465-1.985 4.664-6.402 2.679-9.867-1.336-2.331-3.772-3.637-6.279-3.637-1.219 0-2.455.309-3.587.958l-25.091 14.377c-3.465 1.985-4.664 6.402-2.679 9.867 1.984 3.465 6.403 4.665 9.866 2.679z" fill="url(#SVGID_22_)"/><path d="m320.863 402.93c-1.336-2.331-3.772-3.637-6.279-3.637-1.219 0-2.455.309-3.587.958l-25.091 14.376c-3.465 1.985-4.664 6.402-2.679 9.867s6.403 4.664 9.867 2.679l25.091-14.376c3.464-1.985 4.663-6.403 2.678-9.867z" fill="url(#SVGID_23_)"/><path d="m189.131 471.177c-1.219 0-2.455.309-3.587.958l-25.091 14.376c-3.465 1.985-4.664 6.402-2.679 9.867s6.403 4.665 9.867 2.679l25.091-14.376c3.465-1.985 4.664-6.402 2.679-9.867-1.337-2.331-3.773-3.637-6.28-3.637z" fill="url(#SVGID_24_)"/><path d="m446.316 331.046c-1.336-2.331-3.772-3.637-6.279-3.637-1.219 0-2.455.309-3.587.958l-20.051 11.489c-2.973-.607-6.127.71-7.718 3.486-.837 1.46-1.102 3.089-.876 4.634-.226 1.545.039 3.174.876 4.634 1.591 2.777 4.746 4.094 7.718 3.486l20.051 11.489c1.133.649 2.369.958 3.587.958 2.507 0 4.943-1.306 6.279-3.637 1.985-3.464.786-7.882-2.679-9.867l-12.328-7.064 12.328-7.064c3.465-1.983 4.664-6.401 2.679-9.865z" fill="url(#SVGID_25_)"/><path d="m377.31 363.351c-1.219 0-2.455.309-3.587.958l-25.091 14.377c-3.465 1.985-4.664 6.402-2.679 9.867 1.985 3.464 6.403 4.664 9.867 2.679l25.091-14.377c3.465-1.985 4.664-6.402 2.679-9.867-1.337-2.331-3.773-3.637-6.28-3.637z" fill="url(#SVGID_26_)"/></g><g><path d="m418.986 161.156-144.164 82.62c-12.278 7.037-27.367 7.037-39.645 0l-144.164-82.62c-4.578 7.852-7.089 16.911-7.089 26.289v135.383c0 9.378 2.511 18.437 7.089 26.289 4.554 7.852 11.126 14.474 19.249 19.151l118.694 68.012c8.074 4.628 17.058 6.941 26.043 6.941 9.009 0 17.994-2.314 26.067-6.941l118.669-68.012c8.148-4.677 14.695-11.298 19.249-19.151 4.578-7.852 7.089-16.911 7.089-26.289v-135.383c.002-9.378-2.509-18.436-7.087-26.289z" fill="url(#SVGID_27_)"/><path d="m235.178 243.777-144.164-82.62c-4.578 7.852-7.089 16.911-7.089 26.289v135.383c0 9.378 2.511 18.437 7.089 26.289 4.554 7.852 11.126 14.474 19.249 19.151l118.694 68.012c8.074 4.628 17.058 6.941 26.043 6.941v-194.168c-6.842 0-13.683-1.759-19.822-5.277z" fill="url(#SVGID_28_)"/><path d="m418.986 161.156-146.995 84.243c-10.524 6.031-23.457 6.031-33.981 0l-146.996-84.243c4.554-7.852 11.126-14.474 19.249-19.151l118.694-68.012c16.123-9.255 35.963-9.255 52.11 0l118.669 68.012c8.149 4.678 14.696 11.299 19.25 19.151z" fill="url(#SVGID_29_)"/><path d="m418.986 349.117c-4.554 7.852-11.101 14.474-19.249 19.151l-118.669 68.012c-8.074 4.628-17.058 6.941-26.067 6.941-8.985 0-17.969-2.314-26.043-6.941l-118.694-68.012c-8.123-4.677-14.695-11.298-19.249-19.151l147.525-84.547c10.195-5.843 22.724-5.843 32.919 0z" fill="url(#SVGID_30_)"/><path d="m399.737 142.006-118.669-68.012c-8.073-4.627-17.068-6.941-26.061-6.941v182.87c5.862-.001 11.724-1.509 16.984-4.523l146.995-84.243c-4.554-7.853-11.101-14.474-19.249-19.151z" fill="url(#SVGID_31_)"/></g><path d="m84.75 359.799c-2.507 0-4.943-1.306-6.279-3.637-1.985-3.464-.786-7.882 2.679-9.867l25.091-14.376c3.463-1.986 7.882-.786 9.867 2.679 1.985 3.464.786 7.882-2.679 9.867l-25.091 14.376c-1.134.649-2.37.958-3.588.958zm62.726-35.942c-2.507 0-4.943-1.306-6.279-3.637-1.985-3.464-.786-7.882 2.679-9.867l25.091-14.377c3.464-1.985 7.881-.786 9.867 2.678 1.985 3.465.786 7.882-2.679 9.867l-25.091 14.377c-1.133.651-2.369.959-3.588.959zm62.727-35.942c-2.507 0-4.943-1.306-6.279-3.637-1.985-3.464-.786-7.882 2.679-9.867l25.091-14.376c3.464-1.986 7.881-.786 9.867 2.679 1.985 3.464.786 7.882-2.679 9.867l-25.091 14.376c-1.134.649-2.37.958-3.588.958z" fill="url(#SVGID_32_)"/><path d="m421.235 358.841-25.091-14.376c-3.465-1.985-4.664-6.402-2.679-9.867s6.403-4.664 9.867-2.679l25.091 14.376c3.465 1.985 4.664 6.402 2.679 9.867-1.336 2.331-3.772 3.637-6.279 3.637-1.219 0-2.455-.309-3.588-.958zm-62.726-35.942-25.091-14.377c-3.465-1.985-4.664-6.402-2.679-9.867 1.985-3.464 6.403-4.663 9.867-2.678l25.091 14.377c3.465 1.985 4.664 6.402 2.679 9.867-1.336 2.331-3.772 3.637-6.279 3.637-1.22-.001-2.456-.309-3.588-.959zm-62.727-35.942-25.091-14.376c-3.465-1.985-4.664-6.402-2.679-9.867s6.403-4.665 9.867-2.679l25.091 14.376c3.465 1.985 4.664 6.402 2.679 9.867-1.336 2.331-3.772 3.637-6.279 3.637-1.219 0-2.455-.309-3.588-.958z" fill="url(#SVGID_33_)"/><path d="m247.779 253.226-.003-28.918c-.001-3.993 3.236-7.23 7.228-7.23 3.993-.001 7.231 3.236 7.23 7.228l.003 28.918c.001 3.993-3.236 7.23-7.228 7.23-2.687 0-5.031-1.465-6.278-3.639-.606-1.057-.953-2.283-.952-3.589zm-.007-72.294-.003-28.918c-.001-3.993 3.236-7.23 7.229-7.23 3.992 0 7.229 3.237 7.23 7.229l.003 28.918c.001 3.993-3.236 7.23-7.228 7.23-2.687 0-5.031-1.465-6.278-3.639-.606-1.058-.953-2.284-.953-3.59zm-.006-72.294-.003-28.918c-.001-3.993 3.236-7.23 7.228-7.23 3.993 0 7.231 3.236 7.23 7.228l.003 28.918c.001 3.993-3.236 7.23-7.228 7.23-2.687 0-5.031-1.465-6.278-3.639-.606-1.057-.952-2.283-.952-3.589z" fill="url(#SVGID_34_)"/></g></svg>