<svg width="145" height="46" viewBox="0 0 145 46" fill="none" xmlns="http://www.w3.org/2000/svg">
<path fill-rule="evenodd" clip-rule="evenodd" d="M35.8103 12.4394L30.8714 7.36761C29.8278 6.29599 28.1359 6.29615 27.0925 7.36776L22.1571 12.4365L11.0837 1.0662C10.0403 -0.00541294 8.34842 -0.00525655 7.305 1.06636L0.799516 7.74767C-0.244052 8.81944 -0.244049 10.5572 0.799671 11.629L11.8723 22.9993L0.79946 34.3714C-0.244107 35.4432 -0.244107 37.1808 0.79946 38.2526L7.3048 44.9337C8.34836 46.0055 10.0402 46.0055 11.0838 44.9337L18.4897 37.3277L22.1574 33.5609L27.0964 38.6326C28.1399 39.7043 29.8318 39.7043 30.8752 38.6325L35.8106 33.5637L46.884 44.934C47.9274 46.0057 49.6193 46.0055 50.6627 44.9339L57.1682 38.2527C58.2118 37.1808 58.2118 35.4432 57.168 34.3714L46.0954 23.001L57.1683 11.6288C58.2118 10.557 58.2118 8.81944 57.1683 7.74767L50.6629 1.06652C49.6194 -0.00525225 47.9275 -0.00525227 46.8839 1.06652L39.478 8.67259L35.8103 12.4394ZM35.8103 12.4394L28.9859 19.4483L22.1571 12.4365L18.4897 16.2031L11.8723 22.9993L22.1574 33.5609L28.9819 26.5519L35.8106 33.5637L39.478 29.7972L46.0954 23.001L35.8103 12.4394Z" fill="url(#paint0_radial_1832_2575)"/>
<path d="M67.9509 33.0001L73.1674 22.9179L67.9509 13.0001H74.4885L77.7165 20.3426H77.8254L81.0533 13.0001H87.6046L82.3745 22.9179L87.6046 33.0001H81.0261L77.8254 25.644H77.7165L74.5294 33.0001H67.9509Z" fill="white"/>
<path d="M89.499 33.0001V13.0001H100.749C104.781 13.0001 106.742 14.8357 106.742 17.9727V18.5892C106.742 21.4659 105.325 23.3974 102.084 23.6577V23.6988C105.407 23.8494 106.728 25.5755 106.728 28.2604V28.8494C106.728 30.37 106.837 31.6303 107.246 33.0001H101.28C100.885 31.7125 100.708 30.4248 100.708 28.959V27.7125C100.708 26.1097 100.15 25.5481 98.4473 25.5481H95.4509V33.0001H89.499ZM95.4509 21.959H98.4201C99.9728 21.959 100.695 21.3289 100.695 19.8905V18.9042C100.695 17.6029 100.054 17.0138 98.4201 17.0138H95.4509V21.959Z" fill="white"/>
<path d="M109.573 33.0001V13.0001H123.056V17.4111H115.524V20.9864H123.056V24.7672H115.524V28.5892H123.056V33.0001H109.573Z" fill="white"/>
<path d="M124.311 33.0001L129.418 13.0001H138.857L143.951 33.0001H137.713L136.923 29.37H131.339L130.549 33.0001H124.311ZM132.183 25.5344H136.092L134.213 16.8357H134.076L132.183 25.5344Z" fill="white"/>
<defs>
<radialGradient id="paint0_radial_1832_2575" cx="0" cy="0" r="1" gradientUnits="userSpaceOnUse" gradientTransform="translate(30.7901 22.9299) scale(41.9231 26.8534)">
<stop stop-color="white" stop-opacity="0.25"/>
<stop offset="1" stop-color="white"/>
</radialGradient>
</defs>
</svg>
