<svg id="Capa_1" enable-background="new 0 0 510 510" height="512" viewBox="0 0 510 510" width="512" xmlns="http://www.w3.org/2000/svg" xmlns:xlink="http://www.w3.org/1999/xlink"><linearGradient id="lg1"><stop offset="0" stop-color="#fd8087"/><stop offset="1" stop-color="#fd3e2b"/></linearGradient><linearGradient id="SVGID_1_" gradientUnits="userSpaceOnUse" x1="51.11" x2="81.237" xlink:href="#lg1" y1="393.195" y2="393.195"/><linearGradient id="lg2"><stop offset="0" stop-color="#99e6fc"/><stop offset="1" stop-color="#01c0fa"/></linearGradient><linearGradient id="SVGID_00000158719204343146789090000012531206694379901058_" gradientUnits="userSpaceOnUse" x1="51.11" x2="81.237" xlink:href="#lg2" y1="427.195" y2="427.195"/><linearGradient id="lg3"><stop offset="0" stop-color="#fee45a"/><stop offset="1" stop-color="#fea613"/></linearGradient><linearGradient id="SVGID_00000093152081591810803820000017101329379993432470_" gradientUnits="userSpaceOnUse" x1="51.11" x2="81.237" xlink:href="#lg3" y1="461.195" y2="461.195"/><linearGradient id="SVGID_00000008141421940179748840000004000352155719965065_" gradientUnits="userSpaceOnUse" x1="351.776" x2="351.776" xlink:href="#lg3" y1="242.667" y2="353.335"/><linearGradient id="SVGID_00000136385724000028423610000014035196592194630823_" gradientUnits="userSpaceOnUse" x1="351.776" x2="351.776" y1="304.31" y2="257.307"><stop offset="0" stop-color="#dc8758" stop-opacity="0"/><stop offset=".2153" stop-color="#dd8654" stop-opacity=".215"/><stop offset=".4291" stop-color="#e28448" stop-opacity=".429"/><stop offset=".6424" stop-color="#ea8034" stop-opacity=".642"/><stop offset=".8542" stop-color="#f47b18" stop-opacity=".854"/><stop offset="1" stop-color="#fe7701"/></linearGradient><linearGradient id="SVGID_00000155128701400590017390000007241787930171915708_" gradientUnits="userSpaceOnUse" x1="304.2" x2="361.2" xlink:href="#lg2" y1="136.983" y2="222.983"/><linearGradient id="lg4"><stop offset="0" stop-color="#017bae" stop-opacity="0"/><stop offset="1" stop-color="#017bae"/></linearGradient><linearGradient id="SVGID_00000063605200073800635040000017867022359349915820_" gradientUnits="userSpaceOnUse" x1="367.858" x2="312.081" xlink:href="#lg4" y1="134.642" y2="78.865"/><linearGradient id="SVGID_00000135686778251655281740000006805275660378129842_" gradientUnits="userSpaceOnUse" x1="363" x2="363" xlink:href="#lg4" y1="220.81" y2="266.907"/><linearGradient id="SVGID_00000124135993794427021450000008749476662429186222_" gradientUnits="userSpaceOnUse" x1="299.11" x2="257.915" xlink:href="#lg4" y1="158.919" y2="158.919"/><linearGradient id="SVGID_00000049937518175133987760000000166821599231789974_" gradientUnits="userSpaceOnUse" x1="123.086" x2="348.703" xlink:href="#lg1" y1="159.254" y2="384.871"/><linearGradient id="lg5"><stop offset="0" stop-color="#e41f2d" stop-opacity="0"/><stop offset=".3461" stop-color="#de1e2b" stop-opacity=".346"/><stop offset=".8036" stop-color="#ce1b28" stop-opacity=".804"/><stop offset="1" stop-color="#c41926"/></linearGradient><linearGradient id="SVGID_00000132080863537440350400000000971662506259231895_" gradientUnits="userSpaceOnUse" x1="153.95" x2="99.147" xlink:href="#lg5" y1="202.861" y2="66.138"/><linearGradient id="SVGID_00000177445467419906351850000004301383909052660368_" gradientUnits="userSpaceOnUse" x1="229.265" x2="229.265" xlink:href="#lg5" y1="356.462" y2="462.967"/><linearGradient id="lg6"><stop offset="0" stop-color="#eaf9fa"/><stop offset="1" stop-color="#a8d3d8"/></linearGradient><linearGradient id="SVGID_00000067207745470600913950000003879005980825994169_" gradientUnits="userSpaceOnUse" x1="100.083" x2="100.083" xlink:href="#lg6" y1="115.333" y2="139.343"/><linearGradient id="SVGID_00000116957129769970509770000003786667347386324398_" gradientTransform="matrix(-.707 -.707 -.707 .707 742.787 436.137)" gradientUnits="userSpaceOnUse" x1="250.872" x2="254.66" xlink:href="#lg6" y1="135.584" y2="161.152"/><linearGradient id="SVGID_00000151539903958240835510000001169039005906470836_" gradientUnits="userSpaceOnUse" x1="338.952" x2="368.787" xlink:href="#lg6" y1="60.549" y2="90.383"/><g><g><path d="m60.725 402.81h10.897c5.31 0 9.615-4.305 9.615-9.615s-4.305-9.615-9.615-9.615h-10.897c-5.31 0-9.615 4.305-9.615 9.615s4.305 9.615 9.615 9.615z" fill="url(#SVGID_1_)"/><path d="m60.725 436.81h10.897c5.31 0 9.615-4.305 9.615-9.615s-4.305-9.615-9.615-9.615h-10.897c-5.31 0-9.615 4.305-9.615 9.615s4.305 9.615 9.615 9.615z" fill="url(#SVGID_00000158719204343146789090000012531206694379901058_)"/><path d="m60.725 470.81h10.897c5.31 0 9.615-4.305 9.615-9.615s-4.305-9.615-9.615-9.615h-10.897c-5.31 0-9.615 4.305-9.615 9.615s4.305 9.615 9.615 9.615z" fill="url(#SVGID_00000093152081591810803820000017101329379993432470_)"/></g><g fill="#7ca1b1"><g><path d="m115.273 0h-105.658c-5.31 0-9.615 4.305-9.615 9.615s4.305 9.615 9.615 9.615h105.657c5.31 0 9.615-4.305 9.615-9.615.001-5.31-4.304-9.615-9.614-9.615z"/><path d="m76.685 44.388c0-5.31-4.305-9.615-9.615-9.615h-57.455c-5.31 0-9.615 4.305-9.615 9.615 0 5.311 4.305 9.615 9.615 9.615h57.454c5.311 0 9.616-4.304 9.616-9.615z"/></g><g><path d="m500.385 455.997h-105.658c-5.311 0-9.615 4.305-9.615 9.615s4.305 9.615 9.615 9.615h105.657c5.31 0 9.615-4.305 9.615-9.615.001-5.31-4.304-9.615-9.614-9.615z"/><path d="m461.797 500.385c0-5.31-4.305-9.615-9.615-9.615h-57.454c-5.311 0-9.615 4.305-9.615 9.615 0 5.311 4.305 9.615 9.615 9.615h57.454c5.31 0 9.615-4.305 9.615-9.615z"/></g><g><path d="m394.727 93.022h105.657c5.31 0 9.615-4.305 9.615-9.615s-4.305-9.615-9.615-9.615h-105.657c-5.31 0-9.615 4.305-9.615 9.615s4.305 9.615 9.615 9.615z"/><path d="m433.315 48.634c0 5.31 4.305 9.615 9.615 9.615h57.454c5.31 0 9.615-4.305 9.615-9.615 0-5.311-4.305-9.615-9.615-9.615h-57.454c-5.31-.001-9.615 4.304-9.615 9.615z"/></g></g><g><path d="m267.11 254.81 119.737 119.737c30.643-30.643 49.596-72.977 49.596-119.737z" fill="url(#SVGID_00000008141421940179748840000004000352155719965065_)"/><path d="m267.11 254.81 119.737 119.737c30.643-30.643 49.596-72.977 49.596-119.737z" fill="url(#SVGID_00000136385724000028423610000014035196592194630823_)"/><g><path d="m267.11 72.162v182.648h182.648c5.192 0 9.375-4.327 9.122-9.513-4.804-98.469-83.788-177.452-182.257-182.257-5.186-.253-9.513 3.93-9.513 9.122z" fill="url(#SVGID_00000155128701400590017390000007241787930171915708_)"/><path d="m340.842 77.487-40.372 40.372 136.951 136.951h12.337c5.192 0 9.375-4.327 9.122-9.513-3.699-75.806-51.367-140.056-118.038-167.81z" fill="url(#SVGID_00000063605200073800635040000017867022359349915820_)"/><path d="m267.11 254.81h182.648c5.192 0 9.375-4.327 9.122-9.513-1.694-34.72-12.62-67.01-30.361-94.487h-161.409z" fill="url(#SVGID_00000135686778251655281740000006805275660378129842_)"/><path d="m331.11 73.746c-17.174-6.071-35.464-9.778-54.487-10.706-5.186-.253-9.513 3.93-9.513 9.122v182.648h64z" fill="url(#SVGID_00000124135993794427021450000008749476662429186222_)"/></g><g><path d="m396.84 427.519c-37.025 27.857-83.293 44.087-133.378 43.26-118.73-1.958-214.042-100.413-212.329-219.147 1.635-113.366 90.614-205.599 202.654-212.418 7.218-.439 13.323 5.283 13.323 12.514v203.082l132.4 132.4c11.48 11.48 10.303 30.548-2.67 40.309z" fill="url(#SVGID_00000049937518175133987760000000166821599231789974_)"/><path d="m267.11 254.81v-40.2l-93.86-93.86h-75.506c-28.584 36.062-45.899 81.462-46.611 130.882-.424 29.364 5.095 57.484 15.427 83.214h280.587z" fill="url(#SVGID_00000132080863537440350400000000971662506259231895_)"/><path d="m263.463 470.78c50.084.826 96.353-15.403 133.377-43.26 12.973-9.761 14.15-28.829 2.67-40.309l-132.4-132.401h-215.983c.018 117.306 94.667 214.028 212.336 215.97z" fill="url(#SVGID_00000177445467419906351850000004301383909052660368_)"/></g></g><path d="m167.167 132.493h-105.917c-19.744 0-35.75-16.006-35.75-35.75v-20.75c0-4.142 3.358-7.5 7.5-7.5 4.142 0 7.5 3.358 7.5 7.5v20.75c0 11.46 9.29 20.75 20.75 20.75h105.917c4.142 0 7.5 3.358 7.5 7.5 0 4.142-3.358 7.5-7.5 7.5z" fill="url(#SVGID_00000067207745470600913950000003879005980825994169_)"/><path d="m472.814 449.441c4.142 0 7.5-3.358 7.5-7.5v-51.342c0-12.618-4.915-24.48-13.837-33.402l-52.504-52.504c-2.929-2.929-7.678-2.929-10.607 0-2.929 2.929-2.929 7.678 0 10.607l52.504 52.504c6.089 6.089 9.442 14.185 9.443 22.796v51.341c.001 4.143 3.359 7.501 7.501 7.5z" fill="url(#SVGID_00000116957129769970509770000003786667347386324398_)"/><path d="m419.5 48.412c0-4.142-3.358-7.5-7.5-7.5h-25.624c-12.618 0-24.48 4.915-33.402 13.837l-52.504 52.504c-2.929 2.929-2.929 7.678 0 10.607 2.929 2.929 7.678 2.929 10.607 0l52.504-52.504c6.089-6.089 14.185-9.442 22.796-9.443h25.623c4.142-.001 7.5-3.359 7.5-7.501z" fill="url(#SVGID_00000151539903958240835510000001169039005906470836_)"/></g></svg>