<svg width="32" height="32" viewBox="0 0 32 32" fill="none" xmlns="http://www.w3.org/2000/svg">
<path d="M27.1309 10.0851L12.9975 24.2184C12.8724 24.3447 12.702 24.4156 12.5242 24.4156C12.3464 24.4156 12.176 24.3447 12.0509 24.2184L4.86419 17.0317C4.73798 16.9067 4.66699 16.7363 4.66699 16.5584C4.66699 16.3807 4.73798 16.2103 4.86419 16.0851L5.79753 15.1517C5.9227 15.0256 6.0931 14.9545 6.27086 14.9545C6.44862 14.9545 6.61902 15.0256 6.74419 15.1517L12.5175 20.9251L25.2509 8.19179C25.5146 7.93607 25.9338 7.93607 26.1975 8.19179L27.1309 9.13846C27.2571 9.26363 27.3281 9.43403 27.3281 9.61179C27.3281 9.78955 27.2571 9.95994 27.1309 10.0851Z" fill="#4591F0"/>
</svg>
