<svg width="56" height="55" viewBox="0 0 56 55" fill="none" xmlns="http://www.w3.org/2000/svg">
<path d="M36.1355 15.8024L32.7553 5.39919C31.2585 0.792634 24.7415 0.79264 23.2447 5.39919L19.8645 15.8024C19.4629 17.0385 18.311 17.8754 17.0113 17.8754H6.0727C1.22908 17.8754 -0.784787 24.0735 3.13378 26.9205L11.9833 33.35C13.0348 34.114 13.4747 35.4681 13.0731 36.7041L9.6929 47.1074C8.19614 51.7139 13.4685 55.5446 17.3871 52.6976L26.2366 46.268C27.2881 45.5041 28.7119 45.5041 29.7634 46.268L38.6129 52.6976C42.5315 55.5446 47.8039 51.7139 46.3071 47.1074L42.9269 36.7041C42.5253 35.4681 42.9652 34.114 44.0167 33.35L52.8662 26.9205C56.7848 24.0735 54.7709 17.8754 49.9273 17.8754H38.9887C37.689 17.8754 36.5371 17.0385 36.1355 15.8024Z" fill="#166298" stroke="#E8F3FD" stroke-width="2"/>
</svg>
