<svg width="212" height="212" viewBox="0 0 212 212" fill="none" xmlns="http://www.w3.org/2000/svg">
<path d="M212 106C212 126.923 205.789 147.27 194.04 164.844C192.443 167.233 189.82 168.523 187.148 168.523C185.566 168.523 183.967 168.072 182.553 167.126C178.75 164.585 177.73 159.442 180.271 155.639C190.194 140.799 195.437 123.635 195.437 106C195.437 98.4223 194.49 90.8964 192.62 83.6342C191.479 79.2056 194.147 74.6898 198.575 73.5495C203.007 72.4108 207.52 75.0763 208.66 79.5049C210.876 88.1161 212 97.0297 212 106ZM152.265 182.558C138.355 190.983 122.357 195.438 106 195.438C56.6845 195.438 16.5625 155.315 16.5625 106C16.5625 56.6845 56.6845 16.5625 106 16.5625C124.259 16.5625 141.816 22.0262 156.776 32.3632C160.538 34.9624 165.696 34.0194 168.297 30.2573C170.896 26.4951 169.955 21.3372 166.191 18.7363C148.451 6.47943 127.638 0 106 0C77.6868 0 51.0671 11.026 31.0466 31.0466C11.026 51.0672 0 77.6869 0 106C0 134.313 11.026 160.933 31.0466 180.953C51.0671 200.974 77.6868 212 106 212C125.383 212 144.349 206.717 160.847 196.723C164.76 194.354 166.01 189.262 163.64 185.35C161.269 181.437 156.177 180.188 152.265 182.558ZM106.799 130.012C105.487 130.064 104.263 129.598 103.312 128.693L59.9403 87.5694C56.6214 84.4218 51.3793 84.5609 48.2334 87.8799C45.0859 91.1989 45.225 96.441 48.5439 99.5869L91.9072 140.704C95.912 144.511 101.093 146.578 106.582 146.578C106.877 146.578 107.171 146.572 107.465 146.56C113.28 146.326 118.621 143.809 122.503 139.473C122.601 139.364 122.695 139.253 122.787 139.138L210.172 30.4465C213.038 26.8817 212.472 21.6687 208.907 18.8043C205.344 15.9382 200.129 16.5043 197.263 20.0691L110.05 128.549C109.193 129.443 108.044 129.962 106.799 130.012Z" fill="white"/>
</svg>